# xmcd CD database file
#
# Track frame offsets:
#	150
#	13644
#	27718
#	42458
#	56561
#	70786
#	84508
#	98244
#	109816
#	122573
#	136266
#	154950
#	167707
#	179969
#	194154
#	206709
#	219726
#	232471
#	245237
#	259867
#
# Disc length: 3626 seconds
#
# Revision: 0
# Processed by: cddbd v1.5.2PL0 Copyright (c) Steve Scherf et al.
# Submitted via: CDex 1.70beta2
#
DISCID=410e2814
DTITLE=Lester Young - The Immortal Lester Young - Disc 1
DYEAR=2006
DGENRE=Jazz
TTITLE0=Shoe Shine Boy
TTITLE1=Oh, Lady Be Good
TTITLE2=Boogie Woogie
TTITLE3=This Year's Kisses
TTITLE4=MeanTo Me
TTITLE5=I'll Never Be The Same
TTITLE6=Easy Living
TTITLE7=Me, Myself and I
TTITLE8=A Sailboat In The Moonlight
TTITLE9=One O'Clock Jump
TTITLE10=Honeysuckle Rose
TTITLE11=When You're Smiling
TTITLE12=Swinging The Blues
TTITLE13=Jumpin' At The Woodside
TTITLE14=I Can't Get Started
TTITLE15=I Want A Little Girl
TTITLE16=Panassie Stomp
TTITLE17=Jive At Five
TTITLE18=Lester Leaps In
TTITLE19=Tickle Toe
EXTD=YEAR: 2006
EXTT0=
EXTT1=
EXTT2=
EXTT3=
EXTT4=
EXTT5=
EXTT6=
EXTT7=
EXTT8=
EXTT9=
EXTT10=
EXTT11=
EXTT12=
EXTT13=
EXTT14=
EXTT15=
EXTT16=
EXTT17=
EXTT18=
EXTT19=
PLAYORDER=
